<svg height="1998" width="720" xmlns="http://www.w3.org/2000/svg">
<rect height="1998" fill="#555" width="720"></rect>
<text fill="#7f7" font-family="Courier New" font-size="12" xml:space="preserve">
<tspan x="10" y="26">22 megabytes installed</tspan>
<tspan x="10" y="42"></tspan>
<tspan x="10" y="58">node_modules</tspan>
<tspan x="10" y="74">└─┬ actionhero@17.0.0 </tspan>
<tspan x="10" y="90">  ├─┬ async@2.3.0 </tspan>
<tspan x="10" y="106">  │ └── lodash@4.17.4 </tspan>
<tspan x="10" y="122">  ├── browser_fingerprint@0.1.0 </tspan>
<tspan x="10" y="138">  ├── etag@1.8.0 </tspan>
<tspan x="10" y="154">  ├─┬ fakeredis@2.0.0 </tspan>
<tspan x="10" y="170">  │ └── redis@2.6.0-0 </tspan>
<tspan x="10" y="186">  ├── formidable@1.1.1 </tspan>
<tspan x="10" y="202">  ├─┬ glob@7.1.1 </tspan>
<tspan x="10" y="218">  │ ├── fs.realpath@1.0.0 </tspan>
<tspan x="10" y="234">  │ ├─┬ inflight@1.0.6 </tspan>
<tspan x="10" y="250">  │ │ └── wrappy@1.0.2 </tspan>
<tspan x="10" y="266">  │ ├── inherits@2.0.3 </tspan>
<tspan x="10" y="282">  │ ├─┬ minimatch@3.0.3 </tspan>
<tspan x="10" y="298">  │ │ └─┬ brace-expansion@1.1.7 </tspan>
<tspan x="10" y="314">  │ │   ├── balanced-match@0.4.2 </tspan>
<tspan x="10" y="330">  │ │   └── concat-map@0.0.1 </tspan>
<tspan x="10" y="346">  │ ├── once@1.4.0 </tspan>
<tspan x="10" y="362">  │ └── path-is-absolute@1.0.1 </tspan>
<tspan x="10" y="378">  ├─┬ i18n@0.8.3 </tspan>
<tspan x="10" y="394">  │ ├─┬ debug@2.6.4 </tspan>
<tspan x="10" y="410">  │ │ └── ms@0.7.3 </tspan>
<tspan x="10" y="426">  │ ├─┬ make-plural@3.0.6 </tspan>
<tspan x="10" y="442">  │ │ └── minimist@1.2.0 </tspan>
<tspan x="10" y="458">  │ ├─┬ math-interval-parser@1.1.0 </tspan>
<tspan x="10" y="474">  │ │ └── xregexp@2.0.0 </tspan>
<tspan x="10" y="490">  │ ├─┬ messageformat@0.3.1 </tspan>
<tspan x="10" y="506">  │ │ ├── async@1.5.2 </tspan>
<tspan x="10" y="522">  │ │ ├── glob@6.0.4 </tspan>
<tspan x="10" y="538">  │ │ ├─┬ nopt@3.0.6 </tspan>
<tspan x="10" y="554">  │ │ │ └── abbrev@1.1.0 </tspan>
<tspan x="10" y="570">  │ │ └─┬ watchr@2.4.13 </tspan>
<tspan x="10" y="586">  │ │   ├── eachr@2.0.4 </tspan>
<tspan x="10" y="602">  │ │   ├─┬ extendr@2.1.0 </tspan>
<tspan x="10" y="618">  │ │   │ └── typechecker@2.0.8 </tspan>
<tspan x="10" y="634">  │ │   ├─┬ extract-opts@2.2.0 </tspan>
<tspan x="10" y="650">  │ │   │ └── typechecker@2.0.8 </tspan>
<tspan x="10" y="666">  │ │   ├─┬ ignorefs@1.2.0 </tspan>
<tspan x="10" y="682">  │ │   │ ├── editions@1.3.3 </tspan>
<tspan x="10" y="698">  │ │   │ └── ignorepatterns@1.1.0 </tspan>
<tspan x="10" y="714">  │ │   ├─┬ safefs@3.2.2 </tspan>
<tspan x="10" y="730">  │ │   │ └── graceful-fs@4.1.11 </tspan>
<tspan x="10" y="746">  │ │   ├── scandirectory@2.5.0 </tspan>
<tspan x="10" y="762">  │ │   ├─┬ taskgroup@4.3.1 </tspan>
<tspan x="10" y="778">  │ │   │ ├─┬ ambi@2.5.0 </tspan>
<tspan x="10" y="794">  │ │   │ │ └── typechecker@4.4.1 </tspan>
<tspan x="10" y="810">  │ │   │ └─┬ csextends@1.1.1 </tspan>
<tspan x="10" y="826">  │ │   │   └── coffee-script@1.12.5 </tspan>
<tspan x="10" y="842">  │ │   └── typechecker@2.1.0 </tspan>
<tspan x="10" y="858">  │ ├── mustache@2.3.0 </tspan>
<tspan x="10" y="874">  │ └── sprintf-js@1.0.3 </tspan>
<tspan x="10" y="890">  ├─┬ ioredis@2.5.0 </tspan>
<tspan x="10" y="906">  │ ├── bluebird@3.5.0 </tspan>
<tspan x="10" y="922">  │ ├── cluster-key-slot@1.0.8 </tspan>
<tspan x="10" y="938">  │ ├── double-ended-queue@2.1.0-0 </tspan>
<tspan x="10" y="954">  │ ├── flexbuffer@0.0.6 </tspan>
<tspan x="10" y="970">  │ ├── redis-commands@1.3.1 </tspan>
<tspan x="10" y="986">  │ └── redis-parser@1.3.0 </tspan>
<tspan x="10" y="1002">  ├── is-running@2.1.0 </tspan>
<tspan x="10" y="1018">  ├── mime@1.3.4 </tspan>
<tspan x="10" y="1034">  ├── node-resque@4.0.5 </tspan>
<tspan x="10" y="1050">  ├─┬ optimist@0.6.1 </tspan>
<tspan x="10" y="1066">  │ ├── minimist@0.0.10 </tspan>
<tspan x="10" y="1082">  │ └── wordwrap@0.0.3 </tspan>
<tspan x="10" y="1098">  ├─┬ primus@7.0.0 </tspan>
<tspan x="10" y="1114">  │ ├─┬ access-control@1.0.0 </tspan>
<tspan x="10" y="1130">  │ │ ├── millisecond@0.1.2 </tspan>
<tspan x="10" y="1146">  │ │ └── vary@1.1.1 </tspan>
<tspan x="10" y="1162">  │ ├── asyncemit@3.0.1 </tspan>
<tspan x="10" y="1178">  │ ├─┬ create-server@1.0.1 </tspan>
<tspan x="10" y="1194">  │ │ └── connected@0.0.2 </tspan>
<tspan x="10" y="1210">  │ ├─┬ diagnostics@1.1.0 </tspan>
<tspan x="10" y="1226">  │ │ ├─┬ colorspace@1.0.1 </tspan>
<tspan x="10" y="1242">  │ │ │ ├─┬ color@0.8.0 </tspan>
<tspan x="10" y="1258">  │ │ │ │ ├── color-convert@0.5.3 </tspan>
<tspan x="10" y="1274">  │ │ │ │ └─┬ color-string@0.3.0 </tspan>
<tspan x="10" y="1290">  │ │ │ │   └── color-name@1.1.2 </tspan>
<tspan x="10" y="1306">  │ │ │ └── text-hex@0.0.0 </tspan>
<tspan x="10" y="1322">  │ │ ├─┬ enabled@1.0.2 </tspan>
<tspan x="10" y="1338">  │ │ │ └── env-variable@0.0.3 </tspan>
<tspan x="10" y="1354">  │ │ └─┬ kuler@0.0.0 </tspan>
<tspan x="10" y="1370">  │ │   └── colornames@0.0.2 </tspan>
<tspan x="10" y="1386">  │ ├── eventemitter3@2.0.3 </tspan>
<tspan x="10" y="1402">  │ ├── forwarded-for@1.0.1 </tspan>
<tspan x="10" y="1418">  │ ├─┬ fusing@1.0.0 </tspan>
<tspan x="10" y="1434">  │ │ ├── emits@3.0.0 </tspan>
<tspan x="10" y="1450">  │ │ └─┬ predefine@0.1.2 </tspan>
<tspan x="10" y="1466">  │ │   └── extendible@0.1.1 </tspan>
<tspan x="10" y="1482">  │ ├─┬ setheader@0.0.4 </tspan>
<tspan x="10" y="1498">  │ │ └── debug@0.7.4 </tspan>
<tspan x="10" y="1514">  │ ├── ultron@1.1.0 </tspan>
<tspan x="10" y="1530">  │ └── yeast@0.1.2 </tspan>
<tspan x="10" y="1546">  ├── qs@6.4.0 </tspan>
<tspan x="10" y="1562">  ├─┬ uglify-js@2.8.22 </tspan>
<tspan x="10" y="1578">  │ ├── source-map@0.5.6 </tspan>
<tspan x="10" y="1594">  │ ├── uglify-to-browserify@1.0.2 </tspan>
<tspan x="10" y="1610">  │ └─┬ yargs@3.10.0 </tspan>
<tspan x="10" y="1626">  │   ├── camelcase@1.2.1 </tspan>
<tspan x="10" y="1642">  │   ├─┬ cliui@2.1.0 </tspan>
<tspan x="10" y="1658">  │   │ ├─┬ center-align@0.1.3 </tspan>
<tspan x="10" y="1674">  │   │ │ ├─┬ align-text@0.1.4 </tspan>
<tspan x="10" y="1690">  │   │ │ │ ├─┬ kind-of@3.2.0 </tspan>
<tspan x="10" y="1706">  │   │ │ │ │ └── is-buffer@1.1.5 </tspan>
<tspan x="10" y="1722">  │   │ │ │ ├── longest@1.0.1 </tspan>
<tspan x="10" y="1738">  │   │ │ │ └── repeat-string@1.6.1 </tspan>
<tspan x="10" y="1754">  │   │ │ └── lazy-cache@1.0.4 </tspan>
<tspan x="10" y="1770">  │   │ ├── right-align@0.1.3 </tspan>
<tspan x="10" y="1786">  │   │ └── wordwrap@0.0.2 </tspan>
<tspan x="10" y="1802">  │   ├── decamelize@1.2.0 </tspan>
<tspan x="10" y="1818">  │   └── window-size@0.1.0 </tspan>
<tspan x="10" y="1834">  ├── uuid@3.0.1 </tspan>
<tspan x="10" y="1850">  ├─┬ winston@2.3.1 </tspan>
<tspan x="10" y="1866">  │ ├── async@1.0.0 </tspan>
<tspan x="10" y="1882">  │ ├── colors@1.0.3 </tspan>
<tspan x="10" y="1898">  │ ├── cycle@1.0.3 </tspan>
<tspan x="10" y="1914">  │ ├── eyes@0.1.8 </tspan>
<tspan x="10" y="1930">  │ ├── isstream@0.1.2 </tspan>
<tspan x="10" y="1946">  │ └── stack-trace@0.0.9 </tspan>
<tspan x="10" y="1962">  └─┬ ws@2.3.1 </tspan>
<tspan x="10" y="1978">    └── safe-buffer@5.0.1</tspan>
</text>
</svg>
